<svg xmlns="http://www.w3.org/2000/svg" xmlns:xlink="http://www.w3.org/1999/xlink" version="1.1" width="300.905" height="137.278" viewBox="0 0 300.905 137.278">
<defs>
<clipPath id="clip_0">
<path transform="matrix(1,0,0,-1,-28.346,162.234)" d="M0 0H357.598V190.58H0Z"/>
</clipPath>
</defs>
<g>
<path transform="matrix(1,0,0,-1,14.39,87.672)" d="M-11.90582-45.62155V5.9362C-11.90582 8.13715-10.12166 9.92131-7.92072 9.92131H7.92072C10.12166 9.92131 11.90582 8.13715 11.90582 5.9362V-45.62155C11.90582-47.8225 10.12166-49.60666 7.92072-49.60666H-7.92072C-10.12166-49.60666-11.90582-47.8225-11.90582-45.62155ZM11.90582 9.92131" fill-opacity=".08"/>
<path transform="matrix(1,0,0,-1,14.39,87.672)" d="M22.11023-45.62155V5.9362C22.11023 8.13715 23.8944 9.92131 26.09534 9.92131H41.9368C44.13774 9.92131 45.9219 8.13715 45.9219 5.9362V-45.62155C45.9219-47.8225 44.13774-49.60666 41.9368-49.60666H26.09534C23.8944-49.60666 22.11023-47.8225 22.11023-45.62155ZM45.9219 9.92131" fill-opacity=".08"/>
<path transform="matrix(1,0,0,-1,14.39,87.672)" d="M56.12631-45.62155V5.9362C56.12631 8.13715 57.91049 9.92131 60.11142 9.92131H75.9529C78.15384 9.92131 79.938 8.13715 79.938 5.9362V-45.62155C79.938-47.8225 78.15384-49.60666 75.9529-49.60666H60.11142C57.91049-49.60666 56.12631-47.8225 56.12631-45.62155ZM79.938 9.92131" fill-opacity=".08"/>
<path transform="matrix(1,0,0,-1,14.39,87.672)" d="M90.14241-45.62155V5.9362C90.14241 8.13715 91.92657 9.92131 94.12752 9.92131H109.96898C112.16992 9.92131 113.95409 8.13715 113.95409 5.9362V-45.62155C113.95409-47.8225 112.16992-49.60666 109.96898-49.60666H94.12752C91.92657-49.60666 90.14241-47.8225 90.14241-45.62155ZM113.95409 9.92131" fill-opacity=".08"/>
<path transform="matrix(1,0,0,-1,14.39,87.672)" d="M124.1585-45.62155V5.9362C124.1585 8.13715 125.94266 9.92131 128.1436 9.92131H143.98506C146.186 9.92131 147.97017 8.13715 147.97017 5.9362V-45.62155C147.97017-47.8225 146.186-49.60666 143.98506-49.60666H128.1436C125.94266-49.60666 124.1585-47.8225 124.1585-45.62155ZM147.97017 9.92131" fill-opacity=".08"/>
<path transform="matrix(1,0,0,-1,14.39,87.672)" d="M158.17458-45.62155V5.9362C158.17458 8.13715 159.95874 9.92131 162.15969 9.92131H178.00115C180.20209 9.92131 181.98625 8.13715 181.98625 5.9362V-45.62155C181.98625-47.8225 180.20209-49.60666 178.00115-49.60666H162.15969C159.95874-49.60666 158.17458-47.8225 158.17458-45.62155ZM181.98625 9.92131" fill-opacity=".08"/>
<path transform="matrix(1,0,0,-1,14.39,87.672)" d="M192.19066-45.62155V5.9362C192.19066 8.13715 193.97483 9.92131 196.17577 9.92131H212.01723C214.21817 9.92131 216.00234 8.13715 216.00234 5.9362V-45.62155C216.00234-47.8225 214.21817-49.60666 212.01723-49.60666H196.17577C193.97483-49.60666 192.19066-47.8225 192.19066-45.62155ZM216.00234 9.92131" fill-opacity=".08"/>
<path transform="matrix(1,0,0,-1,14.39,87.672)" d="M226.20674-45.62155V5.9362C226.20674 8.13715 227.9909 9.92131 230.19185 9.92131H246.03331C248.23426 9.92131 250.01842 8.13715 250.01842 5.9362V-45.62155C250.01842-47.8225 248.23426-49.60666 246.03331-49.60666H230.19185C227.9909-49.60666 226.20674-47.8225 226.20674-45.62155ZM250.01842 9.92131" fill-opacity=".08"/>
<path transform="matrix(1,0,0,-1,14.39,87.672)" d="M260.22285-45.62155V5.9362C260.22285 8.13715 262.007 9.92131 264.20796 9.92131H280.0494C282.25035 9.92131 284.0345 8.13715 284.0345 5.9362V-45.62155C284.0345-47.8225 282.25035-49.60666 280.0494-49.60666H264.20796C262.007-49.60666 260.22285-47.8225 260.22285-45.62155ZM284.0345 9.92131" fill-opacity=".08"/>
<g opacity=".2">
<g clip-path="url(#clip_0)">
<path transform="matrix(1,0,0,-1,14.390999,87.672)" stroke-width="14.94415" stroke-linecap="round" stroke-miterlimit="10" stroke-linejoin="miter" fill="none" stroke="#8000ff" d="M238.15847 0H205.13216C204.5819 0 203.84552 .33865 203.48743 .7564L170.76157 38.93347C170.40348 39.35123 169.6671 39.68988 169.11684 39.68988H69.04158C68.49132 39.68988 68.04524 39.2438 68.04524 38.69354V.99632C68.04524 .44606 67.59918 0 67.0489 0H34.02261"/>
<path transform="matrix(1,0,0,-1,14.390999,87.672)" stroke-width="14.94415" stroke-linecap="round" stroke-miterlimit="10" stroke-linejoin="miter" fill="none" stroke="#8000ff" d="M238.15847 0H214.0986C208.59626 0 201.23303 3.38628 197.65218 7.56358L176.59682 32.12628C173.01596 36.30359 165.65274 39.68988 160.15039 39.68988H78.00803C72.50568 39.68988 68.04524 35.22945 68.04524 29.7271V9.96277C68.04524 4.46042 63.58482 0 58.08246 0H34.02261"/>
</g>
</g>
<text fill="#929292" xml:space="preserve" transform="matrix(1 0 -0 1 0 137.278)" font-size="9.9626" font-family="CMR10"><tspan y="-6.711" x="11.899">1</tspan></text>
<text fill="#929292" xml:space="preserve" transform="matrix(1 0 -0 1 0 137.278)" font-size="9.9626" font-family="CMR10"><tspan y="-6.711" x="45.915">2</tspan></text>
<text fill="#929292" xml:space="preserve" transform="matrix(1 0 -0 1 0 137.278)" font-size="9.9626" font-family="CMR10"><tspan y="-6.711" x="79.931">3</tspan></text>
<text fill="#929292" xml:space="preserve" transform="matrix(1 0 -0 1 0 137.278)" font-size="9.9626" font-family="CMR10"><tspan y="-6.711" x="113.946">4</tspan></text>
<text fill="#929292" xml:space="preserve" transform="matrix(1 0 -0 1 0 137.278)" font-size="9.9626" font-family="CMR10"><tspan y="-6.711" x="147.962">5</tspan></text>
<text fill="#929292" xml:space="preserve" transform="matrix(1 0 -0 1 0 137.278)" font-size="9.9626" font-family="CMR10"><tspan y="-6.711" x="181.978">6</tspan></text>
<text fill="#929292" xml:space="preserve" transform="matrix(1 0 -0 1 0 137.278)" font-size="9.9626" font-family="CMR10"><tspan y="-6.711" x="215.993">7</tspan></text>
<text fill="#929292" xml:space="preserve" transform="matrix(1 0 -0 1 0 137.278)" font-size="9.9626" font-family="CMR10"><tspan y="-6.711" x="250.009">8</tspan></text>
<text fill="#929292" xml:space="preserve" transform="matrix(1 0 -0 1 .000030517579 137.278)" font-size="9.9626" font-family="CMR10"><tspan y="-6.711" x="284.025">9</tspan></text>
<text xml:space="preserve" transform="matrix(1 0 -0 1 0 137.278)" font-size="9.9626" font-family="CMR10"><tspan y="-47.115" x="3.321 7.1964519">(1</tspan></text>
<text xml:space="preserve" transform="matrix(1 0 -0 1 0 137.278)" font-size="9.9626" font-family="CMMI10" font-style="italic"><tspan y="-47.115" x="12.176">,</tspan></text>
<text xml:space="preserve" transform="matrix(1 0 -0 1 0 137.278)" font-size="9.9626" font-family="CMR10"><tspan y="-47.115" x="16.604 21.5853">0)</tspan></text>
<text xml:space="preserve" transform="matrix(1 0 -0 1 0 137.278)" font-size="9.9626" font-family="CMR10"><tspan y="-47.115" x="37.336 41.21145">(2</tspan></text>
<text xml:space="preserve" transform="matrix(1 0 -0 1 0 137.278)" font-size="9.9626" font-family="CMMI10" font-style="italic"><tspan y="-47.115" x="46.191999">,</tspan></text>
<text xml:space="preserve" transform="matrix(1 0 -0 1 0 137.278)" font-size="9.9626" font-family="CMR10"><tspan y="-47.115" x="50.62 55.6013">0)</tspan></text>
<text xml:space="preserve" transform="matrix(1 0 -0 1 .0000076293949 137.278)" font-size="9.9626" font-family="CMR10"><tspan y="-47.115" x="71.352 75.22745">(3</tspan></text>
<text xml:space="preserve" transform="matrix(1 0 -0 1 .0000076293949 137.278)" font-size="9.9626" font-family="CMMI10" font-style="italic"><tspan y="-47.115" x="80.208">,</tspan></text>
<text xml:space="preserve" transform="matrix(1 0 -0 1 .0000076293949 137.278)" font-size="9.9626" font-family="CMR10"><tspan y="-47.115" x="84.635 89.6163">0)</tspan></text>
<text xml:space="preserve" transform="matrix(1 0 -0 1 .0000076293949 137.278)" font-size="9.9626" font-family="CMR10"><tspan y="-86.8" x="71.352 75.22745">(3</tspan></text>
<text xml:space="preserve" transform="matrix(1 0 -0 1 .0000076293949 137.278)" font-size="9.9626" font-family="CMMI10" font-style="italic"><tspan y="-86.8" x="80.208">,</tspan></text>
<text xml:space="preserve" transform="matrix(1 0 -0 1 .0000076293949 137.278)" font-size="9.9626" font-family="CMR10"><tspan y="-86.8" x="84.635 89.6163">1)</tspan></text>
<text xml:space="preserve" transform="matrix(1 0 -0 1 0 137.278)" font-size="9.9626" font-family="CMR10"><tspan y="-47.115" x="105.367 109.24245">(4</tspan></text>
<text xml:space="preserve" transform="matrix(1 0 -0 1 0 137.278)" font-size="9.9626" font-family="CMMI10" font-style="italic"><tspan y="-47.115" x="114.223">,</tspan></text>
<text xml:space="preserve" transform="matrix(1 0 -0 1 0 137.278)" font-size="9.9626" font-family="CMR10"><tspan y="-47.115" x="118.651 123.6323">0)</tspan></text>
<text xml:space="preserve" transform="matrix(1 0 -0 1 0 137.278)" font-size="9.9626" font-family="CMR10"><tspan y="-47.115" x="139.383 143.25846">(5</tspan></text>
<text xml:space="preserve" transform="matrix(1 0 -0 1 0 137.278)" font-size="9.9626" font-family="CMMI10" font-style="italic"><tspan y="-47.115" x="148.239">,</tspan></text>
<text xml:space="preserve" transform="matrix(1 0 -0 1 0 137.278)" font-size="9.9626" font-family="CMR10"><tspan y="-47.115" x="152.66699 157.64829">0)</tspan></text>
<text xml:space="preserve" transform="matrix(1 0 -0 1 0 137.278)" font-size="9.9626" font-family="CMR10"><tspan y="-47.115" x="173.399 177.27446">(6</tspan></text>
<text xml:space="preserve" transform="matrix(1 0 -0 1 0 137.278)" font-size="9.9626" font-family="CMMI10" font-style="italic"><tspan y="-47.115" x="182.254">,</tspan></text>
<text xml:space="preserve" transform="matrix(1 0 -0 1 0 137.278)" font-size="9.9626" font-family="CMR10"><tspan y="-47.115" x="186.68199 191.66329">0)</tspan></text>
<text xml:space="preserve" transform="matrix(1 0 -0 1 0 137.278)" font-size="9.9626" font-family="CMR10"><tspan y="-86.8" x="173.399 177.27446">(6</tspan></text>
<text xml:space="preserve" transform="matrix(1 0 -0 1 0 137.278)" font-size="9.9626" font-family="CMMI10" font-style="italic"><tspan y="-86.8" x="182.254">,</tspan></text>
<text xml:space="preserve" transform="matrix(1 0 -0 1 0 137.278)" font-size="9.9626" font-family="CMR10"><tspan y="-86.8" x="186.68199 191.66329">1)</tspan></text>
<text xml:space="preserve" transform="matrix(1 0 -0 1 0 137.278)" font-size="9.9626" font-family="CMR10"><tspan y="-47.115" x="207.414 211.28946">(7</tspan></text>
<text xml:space="preserve" transform="matrix(1 0 -0 1 0 137.278)" font-size="9.9626" font-family="CMMI10" font-style="italic"><tspan y="-47.115" x="216.27">,</tspan></text>
<text xml:space="preserve" transform="matrix(1 0 -0 1 0 137.278)" font-size="9.9626" font-family="CMR10"><tspan y="-47.115" x="220.698 225.67929">0)</tspan></text>
<text xml:space="preserve" transform="matrix(1 0 -0 1 0 137.278)" font-size="9.9626" font-family="CMR10"><tspan y="-47.115" x="241.43 245.30545">(8</tspan></text>
<text xml:space="preserve" transform="matrix(1 0 -0 1 0 137.278)" font-size="9.9626" font-family="CMMI10" font-style="italic"><tspan y="-47.115" x="250.286">,</tspan></text>
<text xml:space="preserve" transform="matrix(1 0 -0 1 0 137.278)" font-size="9.9626" font-family="CMR10"><tspan y="-47.115" x="254.71399 259.69529">0)</tspan></text>
<text xml:space="preserve" transform="matrix(1 0 -0 1 0 137.278)" font-size="9.9626" font-family="CMR10"><tspan y="-47.115" x="275.446 279.32148">(9</tspan></text>
<text xml:space="preserve" transform="matrix(1 0 -0 1 0 137.278)" font-size="9.9626" font-family="CMMI10" font-style="italic"><tspan y="-47.115" x="284.30104">,</tspan></text>
<text xml:space="preserve" transform="matrix(1 0 -0 1 0 137.278)" font-size="9.9626" font-family="CMR10"><tspan y="-47.115" x="288.72904 293.71034">0)</tspan></text>
<text xml:space="preserve" transform="matrix(1 0 -0 1 0 137.278)" font-size="9.9626" font-family="CMR10"><tspan y="-86.8" x="275.446 279.32148">(9</tspan></text>
<text xml:space="preserve" transform="matrix(1 0 -0 1 0 137.278)" font-size="9.9626" font-family="CMMI10" font-style="italic"><tspan y="-86.8" x="284.30104">,</tspan></text>
<text xml:space="preserve" transform="matrix(1 0 -0 1 0 137.278)" font-size="9.9626" font-family="CMR10"><tspan y="-86.8" x="288.72904 293.71034">1)</tspan></text>
<text xml:space="preserve" transform="matrix(1 0 -0 1 0 137.278)" font-size="9.9626" font-family="CMR10"><tspan y="-126.485" x="275.446 279.32148">(9</tspan></text>
<text xml:space="preserve" transform="matrix(1 0 -0 1 0 137.278)" font-size="9.9626" font-family="CMMI10" font-style="italic"><tspan y="-126.485" x="284.30104">,</tspan></text>
<text xml:space="preserve" transform="matrix(1 0 -0 1 0 137.278)" font-size="9.9626" font-family="CMR10"><tspan y="-126.485" x="288.72904 293.71034">2)</tspan></text>
<path transform="matrix(1,0,0,-1,14.39,87.672)" stroke-width=".3985" stroke-linecap="butt" stroke-miterlimit="10" stroke-linejoin="miter" fill="none" stroke="#929292" d="M0-8.50215V-32.50081"/>
<path transform="matrix(0,1,1,0,14.39,120.172809)" stroke-width=".31879" stroke-linecap="round" stroke-linejoin="round" fill="none" stroke="#929292" d="M-1.19551 1.59401C-1.09587 .99626 0 .09961 .29886 0 0-.09961-1.09587-.99626-1.19551-1.59401"/>
<path transform="matrix(1,0,0,-1,14.39,87.672)" stroke-width=".3985" stroke-linecap="butt" stroke-miterlimit="10" stroke-linejoin="miter" fill="none" stroke="#929292" d="M34.02455-8.50215 34.02365-32.50082"/>
<path transform="matrix(-.00002,.99998,.99998,.00002,48.41365,120.172809)" stroke-width=".31879" stroke-linecap="round" stroke-linejoin="round" fill="none" stroke="#929292" d="M-1.19551 1.59401C-1.09587 .99626 0 .09961 .29886 0 0-.09961-1.09587-.99626-1.19551-1.59401"/>
<path transform="matrix(1,0,0,-1,14.39,87.672)" stroke-width=".3985" stroke-linecap="butt" stroke-miterlimit="10" stroke-linejoin="miter" fill="none" stroke="#929292" d="M68.04913-8.50215 68.04744-32.50082"/>
<path transform="matrix(-.00008,.99998,.99998,.00008,82.43745,120.172809)" stroke-width=".31879" stroke-linecap="round" stroke-linejoin="round" fill="none" stroke="#929292" d="M-1.19551 1.59401C-1.09587 .99626 0 .09961 .29886 0 0-.09961-1.09587-.99626-1.19551-1.59401"/>
<path transform="matrix(1,0,0,-1,14.39,87.672)" stroke-width=".3985" stroke-linecap="butt" stroke-miterlimit="10" stroke-linejoin="miter" fill="none" stroke="#929292" d="M102.07372-8.50215 102.07121-32.50082"/>
<path transform="matrix(-.00009,.99998,.99998,.00009,116.46121,120.172809)" stroke-width=".31879" stroke-linecap="round" stroke-linejoin="round" fill="none" stroke="#929292" d="M-1.19551 1.59401C-1.09587 .99626 0 .09961 .29886 0 0-.09961-1.09587-.99626-1.19551-1.59401"/>
<path transform="matrix(1,0,0,-1,14.39,87.672)" stroke-width=".3985" stroke-linecap="butt" stroke-miterlimit="10" stroke-linejoin="miter" fill="none" stroke="#929292" d="M136.09832-8.50215 136.09502-32.50082"/>
<path transform="matrix(-.00014,.99998,.99998,.00014,150.48502,120.172809)" stroke-width=".31879" stroke-linecap="round" stroke-linejoin="round" fill="none" stroke="#929292" d="M-1.19551 1.59401C-1.09587 .99626 0 .09961 .29886 0 0-.09961-1.09587-.99626-1.19551-1.59401"/>
<path transform="matrix(1,0,0,-1,14.39,87.672)" stroke-width=".3985" stroke-linecap="butt" stroke-miterlimit="10" stroke-linejoin="miter" fill="none" stroke="#929292" d="M170.12302-8.50215 170.11879-32.50082"/>
<path transform="matrix(-.00017,.99998,.99998,.00017,184.5088,120.172809)" stroke-width=".31879" stroke-linecap="round" stroke-linejoin="round" fill="none" stroke="#929292" d="M-1.19551 1.59401C-1.09587 .99626 0 .09961 .29886 0 0-.09961-1.09587-.99626-1.19551-1.59401"/>
<path transform="matrix(1,0,0,-1,14.39,87.672)" stroke-width=".3985" stroke-linecap="butt" stroke-miterlimit="10" stroke-linejoin="miter" fill="none" stroke="#929292" d="M204.14762-8.50215 204.14247-32.50082"/>
<path transform="matrix(-.0002,.99998,.99998,.0002,218.53249,120.172809)" stroke-width=".31879" stroke-linecap="round" stroke-linejoin="round" fill="none" stroke="#929292" d="M-1.19551 1.59401C-1.09587 .99626 0 .09961 .29886 0 0-.09961-1.09587-.99626-1.19551-1.59401"/>
<path transform="matrix(1,0,0,-1,14.39,87.672)" stroke-width=".3985" stroke-linecap="butt" stroke-miterlimit="10" stroke-linejoin="miter" fill="none" stroke="#929292" d="M238.17221-8.50215 238.16626-32.50082"/>
<path transform="matrix(-.00023,.99998,.99998,.00023,252.55628,120.172809)" stroke-width=".31879" stroke-linecap="round" stroke-linejoin="round" fill="none" stroke="#929292" d="M-1.19551 1.59401C-1.09587 .99626 0 .09961 .29886 0 0-.09961-1.09587-.99626-1.19551-1.59401"/>
<path transform="matrix(1,0,0,-1,14.39,87.672)" stroke-width=".3985" stroke-linecap="butt" stroke-miterlimit="10" stroke-linejoin="miter" fill="none" stroke="#929292" d="M272.1968-8.50215 272.19004-32.50082"/>
<path transform="matrix(-.00026,.99998,.99998,.00026,286.58006,120.172809)" stroke-width=".31879" stroke-linecap="round" stroke-linejoin="round" fill="none" stroke="#929292" d="M-1.19551 1.59401C-1.09587 .99626 0 .09961 .29886 0 0-.09961-1.09587-.99626-1.19551-1.59401"/>
<path transform="matrix(1,0,0,-1,14.39,87.672)" stroke-width=".3985" stroke-linecap="butt" stroke-miterlimit="10" stroke-linejoin="miter" fill="none" stroke="#929292" d="M68.04951 31.1877 68.04799 8.96042"/>
<path transform="matrix(-.00005,.99998,.99998,.00005,82.43799,78.71156)" stroke-width=".31879" stroke-linecap="round" stroke-linejoin="round" fill="none" stroke="#929292" d="M-1.19551 1.59401C-1.09587 .99626 0 .09961 .29886 0 0-.09961-1.09587-.99626-1.19551-1.59401"/>
<path transform="matrix(1,0,0,-1,14.39,87.672)" stroke-width=".3985" stroke-linecap="butt" stroke-miterlimit="10" stroke-linejoin="miter" fill="none" stroke="#929292" d="M170.12393 31.1877 170.12026 8.96042"/>
<path transform="matrix(-.00017,.99998,.99998,.00017,184.51027,78.71156)" stroke-width=".31879" stroke-linecap="round" stroke-linejoin="round" fill="none" stroke="#929292" d="M-1.19551 1.59401C-1.09587 .99626 0 .09961 .29886 0 0-.09961-1.09587-.99626-1.19551-1.59401"/>
<path transform="matrix(1,0,0,-1,14.39,87.672)" stroke-width=".3985" stroke-linecap="butt" stroke-miterlimit="10" stroke-linejoin="miter" fill="none" stroke="#929292" d="M272.19837 31.1877 272.19236 8.96042"/>
<path transform="matrix(-.00026,.99998,.99998,.00026,286.58238,78.71156)" stroke-width=".31879" stroke-linecap="round" stroke-linejoin="round" fill="none" stroke="#929292" d="M-1.19551 1.59401C-1.09587 .99626 0 .09961 .29886 0 0-.09961-1.09587-.99626-1.19551-1.59401"/>
<path transform="matrix(1,0,0,-1,14.39,87.672)" stroke-width=".3985" stroke-linecap="butt" stroke-miterlimit="10" stroke-linejoin="miter" fill="none" stroke="#929292" d="M272.19837 70.87762 272.19236 48.65031"/>
<path transform="matrix(-.00026,.99998,.99998,.00026,286.58238,39.021669)" stroke-width=".31879" stroke-linecap="round" stroke-linejoin="round" fill="none" stroke="#929292" d="M-1.19551 1.59401C-1.09587 .99626 0 .09961 .29886 0 0-.09961-1.09587-.99626-1.19551-1.59401"/>
<path transform="matrix(1,0,0,-1,14.39,87.672)" stroke-width=".3985" stroke-linecap="butt" stroke-miterlimit="10" stroke-linejoin="miter" fill="none" stroke="#000000" d="M19.43024 0H15.05063"/>
<path transform="matrix(-1,-0,0,1,29.44063,87.672)" stroke-width=".31879" stroke-linecap="round" stroke-linejoin="round" fill="none" stroke="#000000" d="M-1.19551 1.59401C-1.09587 .99626 0 .09961 .29886 0 0-.09961-1.09587-.99626-1.19551-1.59401"/>
<path transform="matrix(1,0,0,-1,14.39,87.672)" stroke-width=".3985" stroke-linecap="butt" stroke-miterlimit="10" stroke-linejoin="miter" fill="none" stroke="#000000" d="M53.45288 0H49.07329"/>
<path transform="matrix(-1,-0,0,1,63.46329,87.672)" stroke-width=".31879" stroke-linecap="round" stroke-linejoin="round" fill="none" stroke="#000000" d="M-1.19551 1.59401C-1.09587 .99626 0 .09961 .29886 0 0-.09961-1.09587-.99626-1.19551-1.59401"/>
<path transform="matrix(1,0,0,-1,14.39,87.672)" stroke-width=".3985" stroke-linecap="butt" stroke-miterlimit="10" stroke-linejoin="miter" fill="none" stroke="#000000" d="M53.47511 31.1877 14.97272 8.73302"/>
<path transform="matrix(-.86378,.50377,.50377,.86378,29.36273,78.938968)" stroke-width=".31879" stroke-linecap="round" stroke-linejoin="round" fill="none" stroke="#000000" d="M-1.19551 1.59401C-1.09587 .99626 0 .09961 .29886 0 0-.09961-1.09587-.99626-1.19551-1.59401"/>
<path transform="matrix(1,0,0,-1,14.39,87.672)" stroke-width=".3985" stroke-linecap="butt" stroke-miterlimit="10" stroke-linejoin="miter" fill="none" stroke="#000000" d="M94.78725 8.50215 75.63483 30.83981"/>
<path transform="matrix(-.65086,-.75911,-.75911,.65086,90.02484,56.8322)" stroke-width=".31879" stroke-linecap="round" stroke-linejoin="round" fill="none" stroke="#000000" d="M-1.19551 1.59401C-1.09587 .99626 0 .09961 .29886 0 0-.09961-1.09587-.99626-1.19551-1.59401"/>
<path transform="matrix(1,0,0,-1,14.39,87.672)" stroke-width=".3985" stroke-linecap="butt" stroke-miterlimit="10" stroke-linejoin="miter" fill="none" stroke="#000000" d="M121.49815 0H117.11856"/>
<path transform="matrix(-1,-0,0,1,131.50856,87.672)" stroke-width=".31879" stroke-linecap="round" stroke-linejoin="round" fill="none" stroke="#000000" d="M-1.19551 1.59401C-1.09587 .99626 0 .09961 .29886 0 0-.09961-1.09587-.99626-1.19551-1.59401"/>
<path transform="matrix(1,0,0,-1,14.39,87.672)" stroke-width=".3985" stroke-linecap="butt" stroke-miterlimit="10" stroke-linejoin="miter" fill="none" stroke="#000000" d="M155.52082 0H151.1412"/>
<path transform="matrix(-1,-0,0,1,165.5312,87.672)" stroke-width=".31879" stroke-linecap="round" stroke-linejoin="round" fill="none" stroke="#000000" d="M-1.19551 1.59401C-1.09587 .99626 0 .09961 .29886 0 0-.09961-1.09587-.99626-1.19551-1.59401"/>
<path transform="matrix(1,0,0,-1,14.39,87.672)" stroke-width=".3985" stroke-linecap="butt" stroke-miterlimit="10" stroke-linejoin="miter" fill="none" stroke="#000000" d="M155.52082 39.69054 83.09592 39.69032"/>
<path transform="matrix(-1,-0,0,1,97.485919,47.981679)" stroke-width=".31879" stroke-linecap="round" stroke-linejoin="round" fill="none" stroke="#000000" d="M-1.19551 1.59401C-1.09587 .99626 0 .09961 .29886 0 0-.09961-1.09587-.99626-1.19551-1.59401"/>
<path transform="matrix(1,0,0,-1,14.39,87.672)" stroke-width=".3985" stroke-linecap="butt" stroke-miterlimit="10" stroke-linejoin="miter" fill="none" stroke="#000000" d="M196.86167 8.50215 177.70693 30.83983"/>
<path transform="matrix(-.65092,-.75908,-.75908,.65092,192.09694,56.83217)" stroke-width=".31879" stroke-linecap="round" stroke-linejoin="round" fill="none" stroke="#000000" d="M-1.19551 1.59401C-1.09587 .99626 0 .09961 .29886 0 0-.09961-1.09587-.99626-1.19551-1.59401"/>
<path transform="matrix(1,0,0,-1,14.39,87.672)" stroke-width=".3985" stroke-linecap="butt" stroke-miterlimit="10" stroke-linejoin="miter" fill="none" stroke="#000000" d="M223.56609 0H219.18648"/>
<path transform="matrix(-1,-0,0,1,233.57648,87.672)" stroke-width=".31879" stroke-linecap="round" stroke-linejoin="round" fill="none" stroke="#000000" d="M-1.19551 1.59401C-1.09587 .99626 0 .09961 .29886 0 0-.09961-1.09587-.99626-1.19551-1.59401"/>
<path transform="matrix(1,0,0,-1,14.39,87.672)" stroke-width=".3985" stroke-linecap="butt" stroke-miterlimit="10" stroke-linejoin="miter" fill="none" stroke="#000000" d="M257.58876 0H253.20914"/>
<path transform="matrix(-1,-0,0,1,267.59916,87.672)" stroke-width=".31879" stroke-linecap="round" stroke-linejoin="round" fill="none" stroke="#000000" d="M-1.19551 1.59401C-1.09587 .99626 0 .09961 .29886 0 0-.09961-1.09587-.99626-1.19551-1.59401"/>
<path transform="matrix(1,0,0,-1,14.39,87.672)" stroke-width=".3985" stroke-linecap="butt" stroke-miterlimit="10" stroke-linejoin="miter" fill="none" stroke="#000000" d="M257.58876 39.69054 185.16385 39.69032"/>
<path transform="matrix(-1,-0,0,1,199.55385,47.981679)" stroke-width=".31879" stroke-linecap="round" stroke-linejoin="round" fill="none" stroke="#000000" d="M-1.19551 1.59401C-1.09587 .99626 0 .09961 .29886 0 0-.09961-1.09587-.99626-1.19551-1.59401"/>
<path transform="matrix(1,0,0,-1,14.39,87.672)" stroke-width=".3985" stroke-linecap="butt" stroke-miterlimit="10" stroke-linejoin="miter" fill="none" stroke="#000000" d="M257.58876 76.54686 83.08746 42.60693"/>
<path transform="matrix(-.98158,.1909,.1909,.98158,97.47748,45.06505)" stroke-width=".31879" stroke-linecap="round" stroke-linejoin="round" fill="none" stroke="#000000" d="M-1.19551 1.59401C-1.09587 .99626 0 .09961 .29886 0 0-.09961-1.09587-.99626-1.19551-1.59401"/>
</g>
</svg>
