<svg xmlns="http://www.w3.org/2000/svg" xmlns:xlink="http://www.w3.org/1999/xlink" version="1.1" width="300.905" height="133.887" viewBox="0 0 300.905 133.887">
<text fill="#929292" xml:space="preserve" transform="matrix(1 0 -0 1 0 133.887)" font-size="9.9626" font-family="CMR10"><tspan y="-3.321" x="11.899">1</tspan></text>
<text fill="#929292" xml:space="preserve" transform="matrix(1 0 -0 1 0 133.887)" font-size="9.9626" font-family="CMR10"><tspan y="-3.321" x="45.915">2</tspan></text>
<text fill="#929292" xml:space="preserve" transform="matrix(1 0 -0 1 0 133.887)" font-size="9.9626" font-family="CMR10"><tspan y="-3.321" x="79.931">3</tspan></text>
<text fill="#929292" xml:space="preserve" transform="matrix(1 0 -0 1 0 133.887)" font-size="9.9626" font-family="CMR10"><tspan y="-3.321" x="113.946">4</tspan></text>
<text fill="#929292" xml:space="preserve" transform="matrix(1 0 -0 1 0 133.887)" font-size="9.9626" font-family="CMR10"><tspan y="-3.321" x="147.962">5</tspan></text>
<text fill="#929292" xml:space="preserve" transform="matrix(1 0 -0 1 0 133.887)" font-size="9.9626" font-family="CMR10"><tspan y="-3.321" x="181.978">6</tspan></text>
<text fill="#929292" xml:space="preserve" transform="matrix(1 0 -0 1 0 133.887)" font-size="9.9626" font-family="CMR10"><tspan y="-3.321" x="215.993">7</tspan></text>
<text fill="#929292" xml:space="preserve" transform="matrix(1 0 -0 1 0 133.887)" font-size="9.9626" font-family="CMR10"><tspan y="-3.321" x="250.009">8</tspan></text>
<text fill="#929292" xml:space="preserve" transform="matrix(1 0 -0 1 .000030517579 133.887)" font-size="9.9626" font-family="CMR10"><tspan y="-3.321" x="284.025">9</tspan></text>
<text xml:space="preserve" transform="matrix(1 0 -0 1 0 133.887)" font-size="9.9626" font-family="CMR10"><tspan y="-43.725" x="3.321 7.1964519">(1</tspan></text>
<text xml:space="preserve" transform="matrix(1 0 -0 1 0 133.887)" font-size="9.9626" font-family="CMMI10" font-style="italic"><tspan y="-43.725" x="12.176">,</tspan></text>
<text xml:space="preserve" transform="matrix(1 0 -0 1 0 133.887)" font-size="9.9626" font-family="CMR10"><tspan y="-43.725" x="16.604 21.5853">0)</tspan></text>
<text xml:space="preserve" transform="matrix(1 0 -0 1 0 133.887)" font-size="9.9626" font-family="CMR10"><tspan y="-43.725" x="37.336 41.21145">(2</tspan></text>
<text xml:space="preserve" transform="matrix(1 0 -0 1 0 133.887)" font-size="9.9626" font-family="CMMI10" font-style="italic"><tspan y="-43.725" x="46.191999">,</tspan></text>
<text xml:space="preserve" transform="matrix(1 0 -0 1 0 133.887)" font-size="9.9626" font-family="CMR10"><tspan y="-43.725" x="50.62 55.6013">0)</tspan></text>
<text xml:space="preserve" transform="matrix(1 0 -0 1 .0000076293949 133.887)" font-size="9.9626" font-family="CMR10"><tspan y="-43.725" x="71.352 75.22745">(3</tspan></text>
<text xml:space="preserve" transform="matrix(1 0 -0 1 .0000076293949 133.887)" font-size="9.9626" font-family="CMMI10" font-style="italic"><tspan y="-43.725" x="80.208">,</tspan></text>
<text xml:space="preserve" transform="matrix(1 0 -0 1 .0000076293949 133.887)" font-size="9.9626" font-family="CMR10"><tspan y="-43.725" x="84.635 89.6163">0)</tspan></text>
<text xml:space="preserve" transform="matrix(1 0 -0 1 .0000076293949 133.887)" font-size="9.9626" font-family="CMR10"><tspan y="-83.41" x="71.352 75.22745">(3</tspan></text>
<text xml:space="preserve" transform="matrix(1 0 -0 1 .0000076293949 133.887)" font-size="9.9626" font-family="CMMI10" font-style="italic"><tspan y="-83.41" x="80.208">,</tspan></text>
<text xml:space="preserve" transform="matrix(1 0 -0 1 .0000076293949 133.887)" font-size="9.9626" font-family="CMR10"><tspan y="-83.41" x="84.635 89.6163">1)</tspan></text>
<text xml:space="preserve" transform="matrix(1 0 -0 1 0 133.887)" font-size="9.9626" font-family="CMR10"><tspan y="-43.725" x="105.367 109.24245">(4</tspan></text>
<text xml:space="preserve" transform="matrix(1 0 -0 1 0 133.887)" font-size="9.9626" font-family="CMMI10" font-style="italic"><tspan y="-43.725" x="114.223">,</tspan></text>
<text xml:space="preserve" transform="matrix(1 0 -0 1 0 133.887)" font-size="9.9626" font-family="CMR10"><tspan y="-43.725" x="118.651 123.6323">0)</tspan></text>
<text xml:space="preserve" transform="matrix(1 0 -0 1 0 133.887)" font-size="9.9626" font-family="CMR10"><tspan y="-43.725" x="139.383 143.25846">(5</tspan></text>
<text xml:space="preserve" transform="matrix(1 0 -0 1 0 133.887)" font-size="9.9626" font-family="CMMI10" font-style="italic"><tspan y="-43.725" x="148.239">,</tspan></text>
<text xml:space="preserve" transform="matrix(1 0 -0 1 0 133.887)" font-size="9.9626" font-family="CMR10"><tspan y="-43.725" x="152.66699 157.64829">0)</tspan></text>
<text xml:space="preserve" transform="matrix(1 0 -0 1 0 133.887)" font-size="9.9626" font-family="CMR10"><tspan y="-43.725" x="173.399 177.27446">(6</tspan></text>
<text xml:space="preserve" transform="matrix(1 0 -0 1 0 133.887)" font-size="9.9626" font-family="CMMI10" font-style="italic"><tspan y="-43.725" x="182.254">,</tspan></text>
<text xml:space="preserve" transform="matrix(1 0 -0 1 0 133.887)" font-size="9.9626" font-family="CMR10"><tspan y="-43.725" x="186.68199 191.66329">0)</tspan></text>
<text xml:space="preserve" transform="matrix(1 0 -0 1 0 133.887)" font-size="9.9626" font-family="CMR10"><tspan y="-83.41" x="173.399 177.27446">(6</tspan></text>
<text xml:space="preserve" transform="matrix(1 0 -0 1 0 133.887)" font-size="9.9626" font-family="CMMI10" font-style="italic"><tspan y="-83.41" x="182.254">,</tspan></text>
<text xml:space="preserve" transform="matrix(1 0 -0 1 0 133.887)" font-size="9.9626" font-family="CMR10"><tspan y="-83.41" x="186.68199 191.66329">1)</tspan></text>
<text xml:space="preserve" transform="matrix(1 0 -0 1 0 133.887)" font-size="9.9626" font-family="CMR10"><tspan y="-43.725" x="207.414 211.28946">(7</tspan></text>
<text xml:space="preserve" transform="matrix(1 0 -0 1 0 133.887)" font-size="9.9626" font-family="CMMI10" font-style="italic"><tspan y="-43.725" x="216.27">,</tspan></text>
<text xml:space="preserve" transform="matrix(1 0 -0 1 0 133.887)" font-size="9.9626" font-family="CMR10"><tspan y="-43.725" x="220.698 225.67929">0)</tspan></text>
<text xml:space="preserve" transform="matrix(1 0 -0 1 0 133.887)" font-size="9.9626" font-family="CMR10"><tspan y="-43.725" x="241.43 245.30545">(8</tspan></text>
<text xml:space="preserve" transform="matrix(1 0 -0 1 0 133.887)" font-size="9.9626" font-family="CMMI10" font-style="italic"><tspan y="-43.725" x="250.286">,</tspan></text>
<text xml:space="preserve" transform="matrix(1 0 -0 1 0 133.887)" font-size="9.9626" font-family="CMR10"><tspan y="-43.725" x="254.71399 259.69529">0)</tspan></text>
<text xml:space="preserve" transform="matrix(1 0 -0 1 0 133.887)" font-size="9.9626" font-family="CMR10"><tspan y="-43.725" x="275.446 279.32148">(9</tspan></text>
<text xml:space="preserve" transform="matrix(1 0 -0 1 0 133.887)" font-size="9.9626" font-family="CMMI10" font-style="italic"><tspan y="-43.725" x="284.30104">,</tspan></text>
<text xml:space="preserve" transform="matrix(1 0 -0 1 0 133.887)" font-size="9.9626" font-family="CMR10"><tspan y="-43.725" x="288.72904 293.71034">0)</tspan></text>
<text xml:space="preserve" transform="matrix(1 0 -0 1 0 133.887)" font-size="9.9626" font-family="CMR10"><tspan y="-83.41" x="275.446 279.32148">(9</tspan></text>
<text xml:space="preserve" transform="matrix(1 0 -0 1 0 133.887)" font-size="9.9626" font-family="CMMI10" font-style="italic"><tspan y="-83.41" x="284.30104">,</tspan></text>
<text xml:space="preserve" transform="matrix(1 0 -0 1 0 133.887)" font-size="9.9626" font-family="CMR10"><tspan y="-83.41" x="288.72904 293.71034">1)</tspan></text>
<text xml:space="preserve" transform="matrix(1 0 -0 1 0 133.887)" font-size="9.9626" font-family="CMR10"><tspan y="-123.095" x="275.446 279.32148">(9</tspan></text>
<text xml:space="preserve" transform="matrix(1 0 -0 1 0 133.887)" font-size="9.9626" font-family="CMMI10" font-style="italic"><tspan y="-123.095" x="284.30104">,</tspan></text>
<text xml:space="preserve" transform="matrix(1 0 -0 1 0 133.887)" font-size="9.9626" font-family="CMR10"><tspan y="-123.095" x="288.72904 293.71034">2)</tspan></text>
</svg>
