<svg xmlns="http://www.w3.org/2000/svg" xmlns:xlink="http://www.w3.org/1999/xlink" version="1.1" width="300.905" height="133.887" viewBox="0 0 300.905 133.887">
<text fill="#929292" xml:space="preserve" transform="matrix(1 0 -0 1 0 133.887)" font-size="9.9626" font-family="CMR10"><tspan y="-3.321" x="11.899">1</tspan></text>
<text fill="#929292" xml:space="preserve" transform="matrix(1 0 -0 1 0 133.887)" font-size="9.9626" font-family="CMR10"><tspan y="-3.321" x="45.915">2</tspan></text>
<text fill="#929292" xml:space="preserve" transform="matrix(1 0 -0 1 0 133.887)" font-size="9.9626" font-family="CMR10"><tspan y="-3.321" x="79.931">3</tspan></text>
<text fill="#929292" xml:space="preserve" transform="matrix(1 0 -0 1 0 133.887)" font-size="9.9626" font-family="CMR10"><tspan y="-3.321" x="113.946">4</tspan></text>
<text fill="#929292" xml:space="preserve" transform="matrix(1 0 -0 1 0 133.887)" font-size="9.9626" font-family="CMR10"><tspan y="-3.321" x="147.962">5</tspan></text>
<text fill="#929292" xml:space="preserve" transform="matrix(1 0 -0 1 0 133.887)" font-size="9.9626" font-family="CMR10"><tspan y="-3.321" x="181.978">6</tspan></text>
<text fill="#929292" xml:space="preserve" transform="matrix(1 0 -0 1 0 133.887)" font-size="9.9626" font-family="CMR10"><tspan y="-3.321" x="215.993">7</tspan></text>
<text fill="#929292" xml:space="preserve" transform="matrix(1 0 -0 1 0 133.887)" font-size="9.9626" font-family="CMR10"><tspan y="-3.321" x="250.009">8</tspan></text>
<text fill="#929292" xml:space="preserve" transform="matrix(1 0 -0 1 .000030517579 133.887)" font-size="9.9626" font-family="CMR10"><tspan y="-3.321" x="284.025">9</tspan></text>
<text xml:space="preserve" transform="matrix(1 0 -0 1 0 133.887)" font-size="9.9626" font-family="CMR10"><tspan y="-43.725" x="3.321 7.1964519">(1</tspan></text>
<text xml:space="preserve" transform="matrix(1 0 -0 1 0 133.887)" font-size="9.9626" font-family="CMMI10" font-style="italic"><tspan y="-43.725" x="12.176">,</tspan></text>
<text xml:space="preserve" transform="matrix(1 0 -0 1 0 133.887)" font-size="9.9626" font-family="CMR10"><tspan y="-43.725" x="16.604 21.5853">0)</tspan></text>
<text xml:space="preserve" transform="matrix(1 0 -0 1 0 133.887)" font-size="9.9626" font-family="CMR10"><tspan y="-43.725" x="37.336 41.21145">(2</tspan></text>
<text xml:space="preserve" transform="matrix(1 0 -0 1 0 133.887)" font-size="9.9626" font-family="CMMI10" font-style="italic"><tspan y="-43.725" x="46.191999">,</tspan></text>
<text xml:space="preserve" transform="matrix(1 0 -0 1 0 133.887)" font-size="9.9626" font-family="CMR10"><tspan y="-43.725" x="50.62 55.6013">0)</tspan></text>
<text xml:space="preserve" transform="matrix(1 0 -0 1 .0000076293949 133.887)" font-size="9.9626" font-family="CMR10"><tspan y="-43.725" x="71.352 75.22745">(3</tspan></text>
<text xml:space="preserve" transform="matrix(1 0 -0 1 .0000076293949 133.887)" font-size="9.9626" font-family="CMMI10" font-style="italic"><tspan y="-43.725" x="80.208">,</tspan></text>
<text xml:space="preserve" transform="matrix(1 0 -0 1 .0000076293949 133.887)" font-size="9.9626" font-family="CMR10"><tspan y="-43.725" x="84.635 89.6163">0)</tspan></text>
<text xml:space="preserve" transform="matrix(1 0 -0 1 .0000076293949 133.887)" font-size="9.9626" font-family="CMR10"><tspan y="-83.41" x="71.352 75.22745">(3</tspan></text>
<text xml:space="preserve" transform="matrix(1 0 -0 1 .0000076293949 133.887)" font-size="9.9626" font-family="CMMI10" font-style="italic"><tspan y="-83.41" x="80.208">,</tspan></text>
<text xml:space="preserve" transform="matrix(1 0 -0 1 .0000076293949 133.887)" font-size="9.9626" font-family="CMR10"><tspan y="-83.41" x="84.635 89.6163">1)</tspan></text>
<text xml:space="preserve" transform="matrix(1 0 -0 1 0 133.887)" font-size="9.9626" font-family="CMR10"><tspan y="-43.725" x="105.367 109.24245">(4</tspan></text>
<text xml:space="preserve" transform="matrix(1 0 -0 1 0 133.887)" font-size="9.9626" font-family="CMMI10" font-style="italic"><tspan y="-43.725" x="114.223">,</tspan></text>
<text xml:space="preserve" transform="matrix(1 0 -0 1 0 133.887)" font-size="9.9626" font-family="CMR10"><tspan y="-43.725" x="118.651 123.6323">0)</tspan></text>
<text xml:space="preserve" transform="matrix(1 0 -0 1 0 133.887)" font-size="9.9626" font-family="CMR10"><tspan y="-43.725" x="139.383 143.25846">(5</tspan></text>
<text xml:space="preserve" transform="matrix(1 0 -0 1 0 133.887)" font-size="9.9626" font-family="CMMI10" font-style="italic"><tspan y="-43.725" x="148.239">,</tspan></text>
<text xml:space="preserve" transform="matrix(1 0 -0 1 0 133.887)" font-size="9.9626" font-family="CMR10"><tspan y="-43.725" x="152.66699 157.64829">0)</tspan></text>
<text xml:space="preserve" transform="matrix(1 0 -0 1 0 133.887)" font-size="9.9626" font-family="CMR10"><tspan y="-43.725" x="173.399 177.27446">(6</tspan></text>
<text xml:space="preserve" transform="matrix(1 0 -0 1 0 133.887)" font-size="9.9626" font-family="CMMI10" font-style="italic"><tspan y="-43.725" x="182.254">,</tspan></text>
<text xml:space="preserve" transform="matrix(1 0 -0 1 0 133.887)" font-size="9.9626" font-family="CMR10"><tspan y="-43.725" x="186.68199 191.66329">0)</tspan></text>
<text xml:space="preserve" transform="matrix(1 0 -0 1 0 133.887)" font-size="9.9626" font-family="CMR10"><tspan y="-83.41" x="173.399 177.27446">(6</tspan></text>
<text xml:space="preserve" transform="matrix(1 0 -0 1 0 133.887)" font-size="9.9626" font-family="CMMI10" font-style="italic"><tspan y="-83.41" x="182.254">,</tspan></text>
<text xml:space="preserve" transform="matrix(1 0 -0 1 0 133.887)" font-size="9.9626" font-family="CMR10"><tspan y="-83.41" x="186.68199 191.66329">1)</tspan></text>
<text xml:space="preserve" transform="matrix(1 0 -0 1 0 133.887)" font-size="9.9626" font-family="CMR10"><tspan y="-43.725" x="207.414 211.28946">(7</tspan></text>
<text xml:space="preserve" transform="matrix(1 0 -0 1 0 133.887)" font-size="9.9626" font-family="CMMI10" font-style="italic"><tspan y="-43.725" x="216.27">,</tspan></text>
<text xml:space="preserve" transform="matrix(1 0 -0 1 0 133.887)" font-size="9.9626" font-family="CMR10"><tspan y="-43.725" x="220.698 225.67929">0)</tspan></text>
<text xml:space="preserve" transform="matrix(1 0 -0 1 0 133.887)" font-size="9.9626" font-family="CMR10"><tspan y="-43.725" x="241.43 245.30545">(8</tspan></text>
<text xml:space="preserve" transform="matrix(1 0 -0 1 0 133.887)" font-size="9.9626" font-family="CMMI10" font-style="italic"><tspan y="-43.725" x="250.286">,</tspan></text>
<text xml:space="preserve" transform="matrix(1 0 -0 1 0 133.887)" font-size="9.9626" font-family="CMR10"><tspan y="-43.725" x="254.71399 259.69529">0)</tspan></text>
<text xml:space="preserve" transform="matrix(1 0 -0 1 0 133.887)" font-size="9.9626" font-family="CMR10"><tspan y="-43.725" x="275.446 279.32148">(9</tspan></text>
<text xml:space="preserve" transform="matrix(1 0 -0 1 0 133.887)" font-size="9.9626" font-family="CMMI10" font-style="italic"><tspan y="-43.725" x="284.30104">,</tspan></text>
<text xml:space="preserve" transform="matrix(1 0 -0 1 0 133.887)" font-size="9.9626" font-family="CMR10"><tspan y="-43.725" x="288.72904 293.71034">0)</tspan></text>
<text xml:space="preserve" transform="matrix(1 0 -0 1 0 133.887)" font-size="9.9626" font-family="CMR10"><tspan y="-83.41" x="275.446 279.32148">(9</tspan></text>
<text xml:space="preserve" transform="matrix(1 0 -0 1 0 133.887)" font-size="9.9626" font-family="CMMI10" font-style="italic"><tspan y="-83.41" x="284.30104">,</tspan></text>
<text xml:space="preserve" transform="matrix(1 0 -0 1 0 133.887)" font-size="9.9626" font-family="CMR10"><tspan y="-83.41" x="288.72904 293.71034">1)</tspan></text>
<text xml:space="preserve" transform="matrix(1 0 -0 1 0 133.887)" font-size="9.9626" font-family="CMR10"><tspan y="-123.095" x="275.446 279.32148">(9</tspan></text>
<text xml:space="preserve" transform="matrix(1 0 -0 1 0 133.887)" font-size="9.9626" font-family="CMMI10" font-style="italic"><tspan y="-123.095" x="284.30104">,</tspan></text>
<text xml:space="preserve" transform="matrix(1 0 -0 1 0 133.887)" font-size="9.9626" font-family="CMR10"><tspan y="-123.095" x="288.72904 293.71034">2)</tspan></text>
<path transform="matrix(1,0,0,-1,14.39,87.67099)" stroke-width=".3985" stroke-linecap="butt" stroke-miterlimit="10" stroke-linejoin="miter" fill="none" stroke="#929292" d="M0-8.50215V-32.50081"/>
<path transform="matrix(0,1,1,0,14.39,120.1718)" stroke-width=".31879" stroke-linecap="round" stroke-linejoin="round" fill="none" stroke="#929292" d="M-1.19551 1.59401C-1.09587 .99626 0 .09961 .29886 0 0-.09961-1.09587-.99626-1.19551-1.59401"/>
<path transform="matrix(1,0,0,-1,14.39,87.67099)" stroke-width=".3985" stroke-linecap="butt" stroke-miterlimit="10" stroke-linejoin="miter" fill="none" stroke="#929292" d="M34.02455-8.50215 34.02365-32.50082"/>
<path transform="matrix(-.00002,.99998,.99998,.00002,48.41365,120.1718)" stroke-width=".31879" stroke-linecap="round" stroke-linejoin="round" fill="none" stroke="#929292" d="M-1.19551 1.59401C-1.09587 .99626 0 .09961 .29886 0 0-.09961-1.09587-.99626-1.19551-1.59401"/>
<path transform="matrix(1,0,0,-1,14.39,87.67099)" stroke-width=".3985" stroke-linecap="butt" stroke-miterlimit="10" stroke-linejoin="miter" fill="none" stroke="#929292" d="M68.04913-8.50215 68.04744-32.50082"/>
<path transform="matrix(-.00008,.99998,.99998,.00008,82.43745,120.1718)" stroke-width=".31879" stroke-linecap="round" stroke-linejoin="round" fill="none" stroke="#929292" d="M-1.19551 1.59401C-1.09587 .99626 0 .09961 .29886 0 0-.09961-1.09587-.99626-1.19551-1.59401"/>
<path transform="matrix(1,0,0,-1,14.39,87.67099)" stroke-width=".3985" stroke-linecap="butt" stroke-miterlimit="10" stroke-linejoin="miter" fill="none" stroke="#929292" d="M102.07372-8.50215 102.07121-32.50082"/>
<path transform="matrix(-.00009,.99998,.99998,.00009,116.46121,120.1718)" stroke-width=".31879" stroke-linecap="round" stroke-linejoin="round" fill="none" stroke="#929292" d="M-1.19551 1.59401C-1.09587 .99626 0 .09961 .29886 0 0-.09961-1.09587-.99626-1.19551-1.59401"/>
<path transform="matrix(1,0,0,-1,14.39,87.67099)" stroke-width=".3985" stroke-linecap="butt" stroke-miterlimit="10" stroke-linejoin="miter" fill="none" stroke="#929292" d="M136.09832-8.50215 136.09502-32.50082"/>
<path transform="matrix(-.00014,.99998,.99998,.00014,150.48502,120.1718)" stroke-width=".31879" stroke-linecap="round" stroke-linejoin="round" fill="none" stroke="#929292" d="M-1.19551 1.59401C-1.09587 .99626 0 .09961 .29886 0 0-.09961-1.09587-.99626-1.19551-1.59401"/>
<path transform="matrix(1,0,0,-1,14.39,87.67099)" stroke-width=".3985" stroke-linecap="butt" stroke-miterlimit="10" stroke-linejoin="miter" fill="none" stroke="#929292" d="M170.12302-8.50215 170.11879-32.50082"/>
<path transform="matrix(-.00017,.99998,.99998,.00017,184.5088,120.1718)" stroke-width=".31879" stroke-linecap="round" stroke-linejoin="round" fill="none" stroke="#929292" d="M-1.19551 1.59401C-1.09587 .99626 0 .09961 .29886 0 0-.09961-1.09587-.99626-1.19551-1.59401"/>
<path transform="matrix(1,0,0,-1,14.39,87.67099)" stroke-width=".3985" stroke-linecap="butt" stroke-miterlimit="10" stroke-linejoin="miter" fill="none" stroke="#929292" d="M204.14762-8.50215 204.14247-32.50082"/>
<path transform="matrix(-.0002,.99998,.99998,.0002,218.53249,120.1718)" stroke-width=".31879" stroke-linecap="round" stroke-linejoin="round" fill="none" stroke="#929292" d="M-1.19551 1.59401C-1.09587 .99626 0 .09961 .29886 0 0-.09961-1.09587-.99626-1.19551-1.59401"/>
<path transform="matrix(1,0,0,-1,14.39,87.67099)" stroke-width=".3985" stroke-linecap="butt" stroke-miterlimit="10" stroke-linejoin="miter" fill="none" stroke="#929292" d="M238.17221-8.50215 238.16626-32.50082"/>
<path transform="matrix(-.00023,.99998,.99998,.00023,252.55628,120.1718)" stroke-width=".31879" stroke-linecap="round" stroke-linejoin="round" fill="none" stroke="#929292" d="M-1.19551 1.59401C-1.09587 .99626 0 .09961 .29886 0 0-.09961-1.09587-.99626-1.19551-1.59401"/>
<path transform="matrix(1,0,0,-1,14.39,87.67099)" stroke-width=".3985" stroke-linecap="butt" stroke-miterlimit="10" stroke-linejoin="miter" fill="none" stroke="#929292" d="M272.1968-8.50215 272.19004-32.50082"/>
<path transform="matrix(-.00026,.99998,.99998,.00026,286.58006,120.1718)" stroke-width=".31879" stroke-linecap="round" stroke-linejoin="round" fill="none" stroke="#929292" d="M-1.19551 1.59401C-1.09587 .99626 0 .09961 .29886 0 0-.09961-1.09587-.99626-1.19551-1.59401"/>
<path transform="matrix(1,0,0,-1,14.39,87.67099)" stroke-width=".3985" stroke-linecap="butt" stroke-miterlimit="10" stroke-linejoin="miter" fill="none" stroke="#929292" d="M68.04951 31.1877 68.04799 8.96042"/>
<path transform="matrix(-.00005,.99998,.99998,.00005,82.43799,78.710559)" stroke-width=".31879" stroke-linecap="round" stroke-linejoin="round" fill="none" stroke="#929292" d="M-1.19551 1.59401C-1.09587 .99626 0 .09961 .29886 0 0-.09961-1.09587-.99626-1.19551-1.59401"/>
<path transform="matrix(1,0,0,-1,14.39,87.67099)" stroke-width=".3985" stroke-linecap="butt" stroke-miterlimit="10" stroke-linejoin="miter" fill="none" stroke="#929292" d="M170.12393 31.1877 170.12026 8.96042"/>
<path transform="matrix(-.00017,.99998,.99998,.00017,184.51027,78.710559)" stroke-width=".31879" stroke-linecap="round" stroke-linejoin="round" fill="none" stroke="#929292" d="M-1.19551 1.59401C-1.09587 .99626 0 .09961 .29886 0 0-.09961-1.09587-.99626-1.19551-1.59401"/>
<path transform="matrix(1,0,0,-1,14.39,87.67099)" stroke-width=".3985" stroke-linecap="butt" stroke-miterlimit="10" stroke-linejoin="miter" fill="none" stroke="#929292" d="M272.19837 31.1877 272.19236 8.96042"/>
<path transform="matrix(-.00026,.99998,.99998,.00026,286.58238,78.710559)" stroke-width=".31879" stroke-linecap="round" stroke-linejoin="round" fill="none" stroke="#929292" d="M-1.19551 1.59401C-1.09587 .99626 0 .09961 .29886 0 0-.09961-1.09587-.99626-1.19551-1.59401"/>
<path transform="matrix(1,0,0,-1,14.39,87.67099)" stroke-width=".3985" stroke-linecap="butt" stroke-miterlimit="10" stroke-linejoin="miter" fill="none" stroke="#929292" d="M272.19837 70.87762 272.19236 48.65031"/>
<path transform="matrix(-.00026,.99998,.99998,.00026,286.58238,39.02066)" stroke-width=".31879" stroke-linecap="round" stroke-linejoin="round" fill="none" stroke="#929292" d="M-1.19551 1.59401C-1.09587 .99626 0 .09961 .29886 0 0-.09961-1.09587-.99626-1.19551-1.59401"/>
<path transform="matrix(1,0,0,-1,14.39,87.67099)" stroke-width=".3985" stroke-linecap="butt" stroke-miterlimit="10" stroke-linejoin="miter" fill="none" stroke="#000000" d="M19.43024 0H15.05063"/>
<path transform="matrix(-1,-0,0,1,29.44063,87.67099)" stroke-width=".31879" stroke-linecap="round" stroke-linejoin="round" fill="none" stroke="#000000" d="M-1.19551 1.59401C-1.09587 .99626 0 .09961 .29886 0 0-.09961-1.09587-.99626-1.19551-1.59401"/>
<path transform="matrix(1,0,0,-1,14.39,87.67099)" stroke-width=".3985" stroke-linecap="butt" stroke-miterlimit="10" stroke-linejoin="miter" fill="none" stroke="#000000" d="M53.45288 0H49.07329"/>
<path transform="matrix(-1,-0,0,1,63.46329,87.67099)" stroke-width=".31879" stroke-linecap="round" stroke-linejoin="round" fill="none" stroke="#000000" d="M-1.19551 1.59401C-1.09587 .99626 0 .09961 .29886 0 0-.09961-1.09587-.99626-1.19551-1.59401"/>
<path transform="matrix(1,0,0,-1,14.39,87.67099)" stroke-width=".3985" stroke-linecap="butt" stroke-miterlimit="10" stroke-linejoin="miter" fill="none" stroke="#000000" d="M53.47511 31.1877 14.97272 8.73302"/>
<path transform="matrix(-.86378,.50377,.50377,.86378,29.36273,78.93796)" stroke-width=".31879" stroke-linecap="round" stroke-linejoin="round" fill="none" stroke="#000000" d="M-1.19551 1.59401C-1.09587 .99626 0 .09961 .29886 0 0-.09961-1.09587-.99626-1.19551-1.59401"/>
<path transform="matrix(1,0,0,-1,14.39,87.67099)" stroke-width=".3985" stroke-linecap="butt" stroke-miterlimit="10" stroke-linejoin="miter" fill="none" stroke="#000000" d="M94.78725 8.50215 75.63483 30.83981"/>
<path transform="matrix(-.65086,-.75911,-.75911,.65086,90.02484,56.831193)" stroke-width=".31879" stroke-linecap="round" stroke-linejoin="round" fill="none" stroke="#000000" d="M-1.19551 1.59401C-1.09587 .99626 0 .09961 .29886 0 0-.09961-1.09587-.99626-1.19551-1.59401"/>
<path transform="matrix(1,0,0,-1,14.39,87.67099)" stroke-width=".3985" stroke-linecap="butt" stroke-miterlimit="10" stroke-linejoin="miter" fill="none" stroke="#000000" d="M121.49815 0H117.11856"/>
<path transform="matrix(-1,-0,0,1,131.50856,87.67099)" stroke-width=".31879" stroke-linecap="round" stroke-linejoin="round" fill="none" stroke="#000000" d="M-1.19551 1.59401C-1.09587 .99626 0 .09961 .29886 0 0-.09961-1.09587-.99626-1.19551-1.59401"/>
<path transform="matrix(1,0,0,-1,14.39,87.67099)" stroke-width=".3985" stroke-linecap="butt" stroke-miterlimit="10" stroke-linejoin="miter" fill="none" stroke="#000000" d="M155.52082 0H151.1412"/>
<path transform="matrix(-1,-0,0,1,165.5312,87.67099)" stroke-width=".31879" stroke-linecap="round" stroke-linejoin="round" fill="none" stroke="#000000" d="M-1.19551 1.59401C-1.09587 .99626 0 .09961 .29886 0 0-.09961-1.09587-.99626-1.19551-1.59401"/>
<path transform="matrix(1,0,0,-1,14.39,87.67099)" stroke-width=".3985" stroke-linecap="butt" stroke-miterlimit="10" stroke-linejoin="miter" fill="none" stroke="#000000" d="M155.52082 39.69054 83.09592 39.69032"/>
<path transform="matrix(-1,-0,0,1,97.485919,47.98067)" stroke-width=".31879" stroke-linecap="round" stroke-linejoin="round" fill="none" stroke="#000000" d="M-1.19551 1.59401C-1.09587 .99626 0 .09961 .29886 0 0-.09961-1.09587-.99626-1.19551-1.59401"/>
<path transform="matrix(1,0,0,-1,14.39,87.67099)" stroke-width=".3985" stroke-linecap="butt" stroke-miterlimit="10" stroke-linejoin="miter" fill="none" stroke="#000000" d="M196.86167 8.50215 177.70693 30.83983"/>
<path transform="matrix(-.65092,-.75908,-.75908,.65092,192.09694,56.83116)" stroke-width=".31879" stroke-linecap="round" stroke-linejoin="round" fill="none" stroke="#000000" d="M-1.19551 1.59401C-1.09587 .99626 0 .09961 .29886 0 0-.09961-1.09587-.99626-1.19551-1.59401"/>
<path transform="matrix(1,0,0,-1,14.39,87.67099)" stroke-width=".3985" stroke-linecap="butt" stroke-miterlimit="10" stroke-linejoin="miter" fill="none" stroke="#000000" d="M223.56609 0H219.18648"/>
<path transform="matrix(-1,-0,0,1,233.57648,87.67099)" stroke-width=".31879" stroke-linecap="round" stroke-linejoin="round" fill="none" stroke="#000000" d="M-1.19551 1.59401C-1.09587 .99626 0 .09961 .29886 0 0-.09961-1.09587-.99626-1.19551-1.59401"/>
<path transform="matrix(1,0,0,-1,14.39,87.67099)" stroke-width=".3985" stroke-linecap="butt" stroke-miterlimit="10" stroke-linejoin="miter" fill="none" stroke="#000000" d="M257.58876 0H253.20914"/>
<path transform="matrix(-1,-0,0,1,267.59916,87.67099)" stroke-width=".31879" stroke-linecap="round" stroke-linejoin="round" fill="none" stroke="#000000" d="M-1.19551 1.59401C-1.09587 .99626 0 .09961 .29886 0 0-.09961-1.09587-.99626-1.19551-1.59401"/>
<path transform="matrix(1,0,0,-1,14.39,87.67099)" stroke-width=".3985" stroke-linecap="butt" stroke-miterlimit="10" stroke-linejoin="miter" fill="none" stroke="#000000" d="M257.58876 39.69054 185.16385 39.69032"/>
<path transform="matrix(-1,-0,0,1,199.55385,47.98067)" stroke-width=".31879" stroke-linecap="round" stroke-linejoin="round" fill="none" stroke="#000000" d="M-1.19551 1.59401C-1.09587 .99626 0 .09961 .29886 0 0-.09961-1.09587-.99626-1.19551-1.59401"/>
<path transform="matrix(1,0,0,-1,14.39,87.67099)" stroke-width=".3985" stroke-linecap="butt" stroke-miterlimit="10" stroke-linejoin="miter" fill="none" stroke="#000000" d="M257.58876 76.54686 83.08746 42.60693"/>
<path transform="matrix(-.98158,.1909,.1909,.98158,97.47748,45.06404)" stroke-width=".31879" stroke-linecap="round" stroke-linejoin="round" fill="none" stroke="#000000" d="M-1.19551 1.59401C-1.09587 .99626 0 .09961 .29886 0 0-.09961-1.09587-.99626-1.19551-1.59401"/>
</svg>
