<svg xmlns="http://www.w3.org/2000/svg" xmlns:xlink="http://www.w3.org/1999/xlink" version="1.1" width="283.748" height="13.061" viewBox="0 0 283.748 13.061">
<text fill="#929292" xml:space="preserve" transform="matrix(1 0 -0 1 -.00000023841859 13.061002)" font-size="9.9626" font-family="CMR10"><tspan y="-3.321" x="3.321">1</tspan></text>
<text fill="#929292" xml:space="preserve" transform="matrix(1 0 -0 1 0 13.061002)" font-size="9.9626" font-family="CMR10"><tspan y="-3.321" x="37.336">2</tspan></text>
<text fill="#929292" xml:space="preserve" transform="matrix(1 0 -0 1 0 13.061002)" font-size="9.9626" font-family="CMR10"><tspan y="-3.321" x="71.352">3</tspan></text>
<text fill="#929292" xml:space="preserve" transform="matrix(1 0 -0 1 0 13.061002)" font-size="9.9626" font-family="CMR10"><tspan y="-3.321" x="105.367">4</tspan></text>
<text fill="#929292" xml:space="preserve" transform="matrix(1 0 -0 1 .000015258789 13.061002)" font-size="9.9626" font-family="CMR10"><tspan y="-3.321" x="139.383">5</tspan></text>
<text fill="#929292" xml:space="preserve" transform="matrix(1 0 -0 1 0 13.061002)" font-size="9.9626" font-family="CMR10"><tspan y="-3.321" x="173.399">6</tspan></text>
<text fill="#929292" xml:space="preserve" transform="matrix(1 0 -0 1 0 13.061002)" font-size="9.9626" font-family="CMR10"><tspan y="-3.321" x="207.414">7</tspan></text>
<text fill="#929292" xml:space="preserve" transform="matrix(1 0 -0 1 .000015258789 13.061002)" font-size="9.9626" font-family="CMR10"><tspan y="-3.321" x="241.43">8</tspan></text>
<text fill="#929292" xml:space="preserve" transform="matrix(1 0 -0 1 0 13.061002)" font-size="9.9626" font-family="CMR10"><tspan y="-3.321" x="275.446">9</tspan></text>
</svg>
